# xmcd CD database file
#
# Track frame offsets:
#	150
#	16232
#	37308
#	54719
#	72409
#	92130
#	110843
#	132949
#	147477
#	163252
#	180330
#	195419
#
# Disc length: 2831 seconds
#
# Revision: 0
# Processed by: cddbd v1.5.2PL0 Copyright (c) Steve Scherf et al.
# Submitted via: CDex 1.70beta2
#
DISCID=b30b0d0c
DTITLE=Amanda Brecker - Here I Am
DYEAR=2008
DGENRE=Jazz
TTITLE0=Sunrise
TTITLE1=Novo Lugar
TTITLE2=Wasted Time
TTITLE3=Your Body Is A Wonderland
TTITLE4=I Can't Make You Love Me
TTITLE5=Here I Am
TTITLE6=Is It Possible
TTITLE7=If This Is It
TTITLE8=Talk To Me
TTITLE9=Thinking Of You
TTITLE10=Up!
TTITLE11=Lovetalk
EXTD=YEAR: 2008
EXTT0=
EXTT1=
EXTT2=
EXTT3=
EXTT4=
EXTT5=
EXTT6=
EXTT7=
EXTT8=
EXTT9=
EXTT10=
EXTT11=
PLAYORDER=
